<?xml version="1.0" encoding="UTF-8" standalone="no"?>
<svg
   width="100%"
   height="100%"
   viewBox="0 0 800 800"
   version="1.1"
   xml:space="preserve"
   style="fill-rule:evenodd;clip-rule:evenodd;stroke-linejoin:round;stroke-miterlimit:2;"
   id="svg3"
   xmlns="http://www.w3.org/2000/svg"
   xmlns:svg="http://www.w3.org/2000/svg"><defs
   id="defs3" />
    <g
   transform="matrix(7.65404e-16,12.5,-12.5,7.65404e-16,800,0)"
   id="g1">
        <path
   d="M2,32C2,45.1 10.4,56.2 22,60.3L22,3.7C10.4,7.8 2,18.9 2,32Z"
   style="fill-rule:nonzero;fill:#ffffff;fill-opacity:1"
   id="path1" />
    </g>
    <g
   transform="matrix(7.65404e-16,12.5,-12.5,7.65404e-16,800,0)"
   id="g2">
        <path
   d="M62,32C62,18.9 53.7,7.8 42,3.7L42,60.3C53.7,56.2 62,45.1 62,32"
   style="fill:#da291c;fill-rule:nonzero;fill-opacity:1"
   id="path2" />
    </g>
    <g
   transform="matrix(7.65404e-16,12.5,-12.5,7.65404e-16,800,0)"
   id="g3">
        <path
   d="M22,60.3C25.1,61.4 28.5,62 32,62C35.5,62 38.9,61.4 42,60.3L42,3.7C38.9,2.6 35.5,2 32,2C28.5,2 25.1,2.6 22,3.7L22,60.3Z"
   style="fill:#0033a0;fill-rule:nonzero;fill-opacity:1"
   id="path3" />
    </g>
</svg>
